<svg width="64" height="66" fill="none" xmlns="http://www.w3.org/2000/svg"><g filter="url(#a)"><path d="M0 32C0 14.327 14.327 0 32 0c17.673 0 32 14.327 32 32 0 17.673-14.327 32-32 32C14.327 64 0 49.673 0 32Z" fill="#65A4F6" fill-opacity=".1"/><g filter="url(#b)"><path d="M12 32c0-11.046 8.954-20 20-20s20 8.954 20 20-8.954 20-20 20-20-8.954-20-20Z" fill="url(#c)"/><path fill-rule="evenodd" clip-rule="evenodd" d="M27.19 23.031S28.308 22.6 32 22.6c3.693 0 4.81.431 4.81.431.66.193 1.854.593 2.232 1.474.258.602 1.087 2.933 1.787 4.995h.893c.403 0 .824.332.962.755l.275.79c.137.423-.078.755-.482.755h-.893c.026.072.172.539.172.539a.562.562 0 0 1 .04.123 6.5 6.5 0 0 0-7.394 6.238h-7.898v1.473c0 .45-.361.827-.79.827h-2.817c-.43 0-.79-.377-.79-.827v-6.971c0-.153.068-.737.137-.863 0 0 .146-.467.172-.539h-.893c-.404 0-.619-.332-.482-.755l.275-.79c.138-.423.559-.755.962-.755h.893c.709-2.125 1.538-4.528 1.752-4.96.43-.853 1.49-1.24 2.268-1.509Zm10.545 2.295c-.029-.083-.355-1.037-5.735-1.037-5.379 0-5.678.833-5.793 1.151l-.013.035c-.021.063-.056.153-.1.27a28.998 28.998 0 0 0-1.24 4.078s2.371.827 7.146.827 7.145-.827 7.145-.827a32.773 32.773 0 0 0-1.219-3.96c-.084-.23-.15-.41-.19-.532l-.001-.005Zm-13.721 7.441a1.404 1.404 0 0 0-.224.003c-.335.045-.584.247-.584.863v.826c0 .701 1.043.863 2.095.863h1.203c.888 0 1.133-.23 1.133-.719 0-.46-.576-.72-1.172-.99-.09-.04-.181-.082-.27-.124-.623-.292-1.585-.719-2.062-.719l-.12-.003Z" fill="#fff"/><path fill-rule="evenodd" clip-rule="evenodd" d="M46 39a5 5 0 1 1-10 0 5 5 0 0 1 10 0Zm-5.792-2.083a.792.792 0 1 1 1.584 0v1.291h1.291a.792.792 0 1 1 0 1.584h-1.291v1.291a.792.792 0 1 1-1.584 0v-1.291h-1.291a.792.792 0 1 1 0-1.584h1.291v-1.291Z" fill="#65A4F6"/></g></g><defs><filter id="a" x="-10" y="-10" width="84" height="84" filterUnits="userSpaceOnUse" color-interpolation-filters="sRGB"><feFlood flood-opacity="0" result="BackgroundImageFix"/><feGaussianBlur in="BackgroundImage" stdDeviation="5"/><feComposite in2="SourceAlpha" operator="in" result="effect1_backgroundBlur"/><feBlend in="SourceGraphic" in2="effect1_backgroundBlur" result="shape"/></filter><filter id="b" x="0" y="2" width="64" height="64" filterUnits="userSpaceOnUse" color-interpolation-filters="sRGB"><feFlood flood-opacity="0" result="BackgroundImageFix"/><feColorMatrix in="SourceAlpha" values="0 0 0 0 0 0 0 0 0 0 0 0 0 0 0 0 0 0 127 0" result="hardAlpha"/><feOffset dy="2"/><feGaussianBlur stdDeviation="6"/><feColorMatrix values="0 0 0 0 0.0470588 0 0 0 0 0.384314 0 0 0 0 0.835294 0 0 0 0.2 0"/><feBlend in2="BackgroundImageFix" result="effect1_dropShadow"/><feBlend in="SourceGraphic" in2="effect1_dropShadow" result="shape"/></filter><linearGradient id="c" x1="25.75" y1="12" x2="37" y2="43.251" gradientUnits="userSpaceOnUse"><stop stop-color="#0F79DF"/><stop offset="1" stop-color="#0C62D5"/></linearGradient></defs></svg>